<?xml version="1.0" encoding="utf-8"?>
<!-- Generator: Adobe Illustrator 22.0.0, SVG Export Plug-In . SVG Version: 6.00 Build 0)  -->
<svg version="1.1" id="Layer_1" xmlns="http://www.w3.org/2000/svg" xmlns:xlink="http://www.w3.org/1999/xlink" x="0px" y="0px"
	 viewBox="0 0 750 697.6" style="enable-background:new 0 0 750 697.6;" xml:space="preserve">
<style type="text/css">
	.st0{fill:#FFDFCE;}
	.st1{fill:#A2B7BB;}
	.st2{fill:#C5D5D6;}
	.st3{fill:#A67C52;}
	.st4{fill:#FF9286;}
</style>
<path class="st0" d="M495.4,293.6c0-13.2,10.7-23.9,23.9-23.9c13.2,0,23.9,10.7,23.9,23.9c0,13.2-10.7,23.9-23.9,23.9
	C506.1,317.6,495.4,306.9,495.4,293.6z"/>
<path class="st1" d="M543.2,293.6c0,13.2-10.7,23.9-23.9,23.9c-13.2,0-23.9-10.7-23.9-23.9c0-13.2,10.7-23.9,23.9-23.9
	C532.6,269.7,543.2,280.4,543.2,293.6z"/>
<g>
	<path class="st0" d="M623.1,369.8c0,65.4-3,106.2-44.5,150.3c-44.6,47.5-129.9,62.8-200.4,63.1c-70.6-0.3-155.8-15.6-200.4-63.1
		c-41.5-44.2-44.5-85-44.5-150.3c0-66.6,26.4-127,69.2-171.4c-8.9-17.3-26.2-30.7-53.8,28.5c-15.2,32.7-61.9,50.8-90.4,23.5
		c-30.2-28.9-5.9-70.7,16.8-95.5c19.8-21.6,46.5-33.3,75.9-31.7c52.3,2.7,69.6,30.9,75.1,53.7c38.4-30.8,86.2-50.3,138.5-53.5
		c-3.1,13.5-4.8,27.7-4.8,42.2c0,103.5,83.9,187.5,187.5,187.5c26.3,0,51.3-5.4,74.1-15.2C622.4,348.4,623.1,359,623.1,369.8z"/>
	<path class="st2" d="M692.9,250.4c-28.5,27.3-75.2,9.2-90.4-23.5c-25.7-55.2-42.5-47.3-51.9-31.9c37.7,37.6,63.3,87.4,70.5,142.9
		c-22.7,9.8-47.8,15.2-74.1,15.2c-103.5,0-187.5-83.9-187.5-187.5c0-14.5,1.6-28.6,4.8-42.2c4.6-0.3,9.2-0.4,13.8-0.5
		c55.6,0.4,106.9,19.2,148,50.6c6.3-22.2,24.5-47.8,74.2-50.4c29.4-1.6,56.1,10.1,75.9,31.7C698.8,179.8,723.1,221.5,692.9,250.4z"
		/>
</g>
<g>
	<circle class="st3" cx="307.6" cy="293.6" r="23.9"/>
	<path class="st3" d="M543.2,293.6c0,13.2-10.7,23.9-23.9,23.9c-13.2,0-23.9-10.7-23.9-23.9c0-13.2,10.7-23.9,23.9-23.9
		C532.6,269.7,543.2,280.4,543.2,293.6z"/>
</g>
<g>
	<path class="st4" d="M435.8,401.4v13c0,12.3-10,22.3-22.3,22.3s-22.3-10-22.3-22.3v-13l21.5-11.1L435.8,401.4z"/>
</g>
<path class="st3" d="M469.8,388.4c-1.7-3-5.6-4.1-8.6-2.3c-13.1,7.5-23.4,9.7-29.9,6.4c-7.1-3.6-8.2-13.5-8.2-13.7
	c0-0.2-0.1-0.4-0.1-0.6c0.5-0.3,0.9-0.6,1.4-1l12.5-10.1c11.9-9.6,5.1-28.9-10.2-28.9h-25c-15.3,0-22.1,19.3-10.2,28.9l12.5,10.1
	c0.4,0.4,0.9,0.7,1.4,1c0,0.2-0.1,0.4-0.1,0.6c0,0.1-1.1,9.9-8.2,13.6c-6.4,3.3-16.8,1.1-29.9-6.4c-3-1.7-6.9-0.7-8.6,2.3
	c-1.7,3-0.7,6.9,2.3,8.6c11.1,6.4,21,9.6,29.4,9.6c4.6,0,8.9-1,12.6-2.9c5.6-2.9,9.1-7.4,11.3-11.7c2.2,4.3,5.7,8.8,11.3,11.7
	c3.8,2,8,2.9,12.6,2.9c8.4,0,18.2-3.2,29.4-9.6C470.5,395.2,471.5,391.4,469.8,388.4z"/>
</svg>
